<mxfile host="app.diagrams.net" agent="Mozilla/5.0 (Windows NT 10.0; Win64; x64) AppleWebKit/537.36 (KHTML, like Gecko) Chrome/127.0.0.0 Safari/537.36" version="24.7.7">
  <diagram name="Page-1" id="pY38qy5y8yL2ajrc0aq_">
    <mxGraphModel dx="1050" dy="522" grid="1" gridSize="10" guides="1" tooltips="1" connect="1" arrows="1" fold="1" page="1" pageScale="1" pageWidth="1169" pageHeight="827" math="0" shadow="0">
      <root>
        <mxCell id="0" />
        <mxCell id="1" parent="0" />
        <mxCell id="lo2jy_XwQyZ003AwvGnr-1" value="CTO Assesment" style="text;html=1;align=center;verticalAlign=middle;whiteSpace=wrap;rounded=0;fontStyle=5;fontSize=14;" parent="1" vertex="1">
          <mxGeometry x="310" y="20" width="140" height="30" as="geometry" />
        </mxCell>
        <mxCell id="lo2jy_XwQyZ003AwvGnr-2" value="&lt;p class=&quot;MsoNormal&quot; style=&quot;margin-bottom:0cm&quot;&gt;&lt;b&gt;&lt;span lang=&quot;EN-GB&quot;&gt;Team Evaluation and Restructuring&lt;/span&gt;&lt;/b&gt;&lt;span lang=&quot;EN-GB&quot;&gt;&lt;/span&gt;&lt;/p&gt;" style="text;html=1;align=center;verticalAlign=middle;whiteSpace=wrap;rounded=0;fontStyle=4" parent="1" vertex="1">
          <mxGeometry x="10" y="50" width="220" height="30" as="geometry" />
        </mxCell>
        <mxCell id="iFOoKA2MuVSQarTfzU_r-2" value="Coin Poker" style="rounded=0;whiteSpace=wrap;html=1;verticalAlign=top;align=right;fontStyle=1;fontColor=#FF0080;" vertex="1" parent="1">
          <mxGeometry x="30" y="120" width="810" height="470" as="geometry" />
        </mxCell>
        <mxCell id="iFOoKA2MuVSQarTfzU_r-3" value="Option 1" style="text;html=1;align=center;verticalAlign=middle;whiteSpace=wrap;rounded=0;fontStyle=7" vertex="1" parent="1">
          <mxGeometry x="10" y="90" width="60" height="30" as="geometry" />
        </mxCell>
        <mxCell id="iFOoKA2MuVSQarTfzU_r-8" value="Product" style="rounded=1;whiteSpace=wrap;html=1;verticalAlign=top;align=center;fontColor=#0000FF;fontStyle=1" vertex="1" parent="1">
          <mxGeometry x="40" y="130" width="260" height="190" as="geometry" />
        </mxCell>
        <mxCell id="iFOoKA2MuVSQarTfzU_r-9" value="Tech" style="shape=hexagon;perimeter=hexagonPerimeter2;whiteSpace=wrap;html=1;fixedSize=1;verticalAlign=top;align=center;fontColor=#0000FF;fontStyle=1" vertex="1" parent="1">
          <mxGeometry x="310" y="140" width="520" height="400" as="geometry" />
        </mxCell>
        <mxCell id="iFOoKA2MuVSQarTfzU_r-10" value="CPO" style="image;html=1;image=img/lib/clip_art/people/Suit_Man_Green_128x128.png;fontStyle=0" vertex="1" parent="1">
          <mxGeometry x="30" y="156" width="70" height="40" as="geometry" />
        </mxCell>
        <mxCell id="iFOoKA2MuVSQarTfzU_r-11" value="Product&amp;nbsp;&lt;div&gt;Manager&lt;/div&gt;&lt;div&gt;Casino&lt;/div&gt;" style="image;html=1;image=img/lib/clip_art/people/Suit_Woman_Blue_128x128.png;fontStyle=0" vertex="1" parent="1">
          <mxGeometry x="90" y="156" width="60" height="40" as="geometry" />
        </mxCell>
        <mxCell id="iFOoKA2MuVSQarTfzU_r-12" style="edgeStyle=orthogonalEdgeStyle;rounded=0;orthogonalLoop=1;jettySize=auto;html=1;exitX=0.5;exitY=1;exitDx=0;exitDy=0;" edge="1" parent="1" source="iFOoKA2MuVSQarTfzU_r-10" target="iFOoKA2MuVSQarTfzU_r-10">
          <mxGeometry relative="1" as="geometry" />
        </mxCell>
        <mxCell id="iFOoKA2MuVSQarTfzU_r-13" value="Casino&lt;div&gt;PO&lt;/div&gt;" style="image;html=1;image=img/lib/clip_art/people/Suit_Woman_128x128.png;fontStyle=0" vertex="1" parent="1">
          <mxGeometry x="140" y="156" width="50" height="40" as="geometry" />
        </mxCell>
        <mxCell id="iFOoKA2MuVSQarTfzU_r-14" value="Poker&lt;div&gt;PO&lt;/div&gt;" style="image;html=1;image=img/lib/clip_art/people/Worker_Man_128x128.png;fontStyle=0;verticalAlign=bottom;" vertex="1" parent="1">
          <mxGeometry x="238" y="157" width="50" height="39" as="geometry" />
        </mxCell>
        <mxCell id="iFOoKA2MuVSQarTfzU_r-17" value="Product&lt;div&gt;Manager&lt;/div&gt;&lt;div&gt;Poker&lt;/div&gt;" style="image;html=1;image=img/lib/clip_art/people/Suit_Man_Blue_128x128.png;fontStyle=0" vertex="1" parent="1">
          <mxGeometry x="188" y="156" width="50" height="40" as="geometry" />
        </mxCell>
        <mxCell id="iFOoKA2MuVSQarTfzU_r-18" value="CTO" style="image;html=1;image=img/lib/clip_art/people/Suit_Man_Green_Black_128x128.png;fontStyle=0" vertex="1" parent="1">
          <mxGeometry x="325" y="144" width="55" height="45" as="geometry" />
        </mxCell>
        <mxCell id="iFOoKA2MuVSQarTfzU_r-19" value="Game&lt;div&gt;Designer&lt;/div&gt;&lt;div&gt;Casino&lt;/div&gt;" style="image;html=1;image=img/lib/clip_art/people/Suit_Woman_Green_Black_128x128.png;fontStyle=0;fontColor=#FF0000;" vertex="1" parent="1">
          <mxGeometry x="55" y="217" width="35" height="43" as="geometry" />
        </mxCell>
        <mxCell id="iFOoKA2MuVSQarTfzU_r-21" value="Game&amp;nbsp;&lt;div&gt;Mathematician (1)&lt;/div&gt;" style="image;html=1;image=img/lib/clip_art/people/Worker_Woman_128x128.png;fontStyle=0;fontColor=#FF0000;" vertex="1" parent="1">
          <mxGeometry x="726.56" y="148.5" width="50" height="36" as="geometry" />
        </mxCell>
        <mxCell id="iFOoKA2MuVSQarTfzU_r-22" value="Security&lt;div&gt;Engineer (1)&lt;/div&gt;" style="image;html=1;image=img/lib/clip_art/people/Worker_Black_128x128.png;fontStyle=0;fontColor=#FF0000;" vertex="1" parent="1">
          <mxGeometry x="618" y="146.5" width="75" height="40" as="geometry" />
        </mxCell>
        <mxCell id="iFOoKA2MuVSQarTfzU_r-23" value="Blockchain&lt;div&gt;Developer (1)&lt;/div&gt;" style="image;html=1;image=img/lib/clip_art/people/Worker_Black_128x128.png;fontStyle=0;fontColor=#FF0000;" vertex="1" parent="1">
          <mxGeometry x="504" y="146.5" width="75" height="40" as="geometry" />
        </mxCell>
        <mxCell id="iFOoKA2MuVSQarTfzU_r-24" value="Data Analyst&lt;div&gt;&lt;br&gt;&lt;/div&gt;" style="image;html=1;image=img/lib/clip_art/people/Scientist_Woman_Black_128x128.png;fontStyle=0;fontColor=#FF0000;" vertex="1" parent="1">
          <mxGeometry x="137.5" y="230" width="55" height="50" as="geometry" />
        </mxCell>
        <mxCell id="iFOoKA2MuVSQarTfzU_r-25" value="IT&lt;div&gt;Manager&lt;/div&gt;" style="image;html=1;image=img/lib/clip_art/people/Suit_Man_Blue_128x128.png;fontStyle=0;fontColor=#FF0000;" vertex="1" parent="1">
          <mxGeometry x="373" y="145" width="50" height="43" as="geometry" />
        </mxCell>
        <mxCell id="iFOoKA2MuVSQarTfzU_r-31" value="DevOps&lt;div&gt;Engineer (2)&lt;/div&gt;" style="image;html=1;image=img/lib/clip_art/people/Worker_Man_128x128.png;fontStyle=0;fontColor=#FF0000;" vertex="1" parent="1">
          <mxGeometry x="434" y="141.5" width="60" height="50" as="geometry" />
        </mxCell>
        <mxCell id="iFOoKA2MuVSQarTfzU_r-35" value="Casino" style="ellipse;whiteSpace=wrap;html=1;aspect=fixed;verticalAlign=top;fontStyle=1" vertex="1" parent="1">
          <mxGeometry x="328.00000000000006" y="235" width="195" height="195" as="geometry" />
        </mxCell>
        <mxCell id="iFOoKA2MuVSQarTfzU_r-28" value="QA&amp;nbsp;&lt;div&gt;Engineers (2)&lt;/div&gt;" style="image;html=1;image=img/lib/clip_art/people/Worker_Woman_128x128.png;fontStyle=0" vertex="1" parent="1">
          <mxGeometry x="450" y="255" width="40" height="42.5" as="geometry" />
        </mxCell>
        <mxCell id="iFOoKA2MuVSQarTfzU_r-32" value="Front-End&lt;div&gt;Engineers (2)&lt;/div&gt;" style="image;html=1;image=img/lib/clip_art/people/Scientist_Woman_Black_128x128.png" vertex="1" parent="1">
          <mxGeometry x="355" y="255" width="50" height="40" as="geometry" />
        </mxCell>
        <mxCell id="iFOoKA2MuVSQarTfzU_r-36" style="edgeStyle=orthogonalEdgeStyle;rounded=0;orthogonalLoop=1;jettySize=auto;html=1;exitX=0.5;exitY=1;exitDx=0;exitDy=0;" edge="1" parent="1" source="iFOoKA2MuVSQarTfzU_r-28" target="iFOoKA2MuVSQarTfzU_r-28">
          <mxGeometry relative="1" as="geometry" />
        </mxCell>
        <mxCell id="iFOoKA2MuVSQarTfzU_r-37" value="Mobile&lt;div&gt;Developers (2)&lt;/div&gt;" style="image;html=1;image=img/lib/clip_art/people/Worker_Black_128x128.png" vertex="1" parent="1">
          <mxGeometry x="397" y="325" width="50" height="50" as="geometry" />
        </mxCell>
        <mxCell id="iFOoKA2MuVSQarTfzU_r-39" value="Poker" style="ellipse;whiteSpace=wrap;html=1;aspect=fixed;verticalAlign=top;fontStyle=1" vertex="1" parent="1">
          <mxGeometry x="610" y="229" width="195" height="195" as="geometry" />
        </mxCell>
        <mxCell id="iFOoKA2MuVSQarTfzU_r-27" value="Front-End&lt;div&gt;Enginees (2)&lt;/div&gt;" style="image;html=1;image=img/lib/clip_art/people/Worker_Black_128x128.png;fontStyle=0" vertex="1" parent="1">
          <mxGeometry x="639.06" y="249" width="45" height="50" as="geometry" />
        </mxCell>
        <mxCell id="iFOoKA2MuVSQarTfzU_r-40" value="QA&amp;nbsp;&lt;div&gt;Engineers (2)&lt;/div&gt;" style="image;html=1;image=img/lib/clip_art/people/Worker_Woman_128x128.png;fontStyle=0" vertex="1" parent="1">
          <mxGeometry x="726.56" y="249" width="40" height="42.5" as="geometry" />
        </mxCell>
        <mxCell id="iFOoKA2MuVSQarTfzU_r-41" value="Mobile&lt;div&gt;Developers (2)&lt;/div&gt;" style="image;html=1;image=img/lib/clip_art/people/Worker_Black_128x128.png" vertex="1" parent="1">
          <mxGeometry x="681.56" y="329" width="50" height="50" as="geometry" />
        </mxCell>
        <mxCell id="iFOoKA2MuVSQarTfzU_r-42" value="QA Manager" style="image;html=1;image=img/lib/clip_art/people/Suit_Woman_128x128.png" vertex="1" parent="1">
          <mxGeometry x="540" y="315.63" width="57" height="48.75" as="geometry" />
        </mxCell>
        <mxCell id="iFOoKA2MuVSQarTfzU_r-45" value="Design" style="rounded=1;whiteSpace=wrap;html=1;fontStyle=1;verticalAlign=top;align=right;" vertex="1" parent="1">
          <mxGeometry x="338" y="440" width="242" height="90" as="geometry" />
        </mxCell>
        <mxCell id="iFOoKA2MuVSQarTfzU_r-46" value="Graphic&amp;nbsp;&lt;div&gt;Designers (3)&lt;/div&gt;" style="image;html=1;image=img/lib/clip_art/people/Worker_Black_128x128.png;labelPosition=center;verticalLabelPosition=bottom;align=center;verticalAlign=top;fontColor=#FF0000;" vertex="1" parent="1">
          <mxGeometry x="347.5" y="437" width="65" height="55" as="geometry" />
        </mxCell>
        <mxCell id="iFOoKA2MuVSQarTfzU_r-44" value="Sound&lt;div&gt;Designer&lt;/div&gt;" style="image;html=1;image=img/lib/clip_art/people/Worker_Woman_Black_128x128.png;fontColor=#FF0000;" vertex="1" parent="1">
          <mxGeometry x="412.5" y="438.5" width="63" height="52" as="geometry" />
        </mxCell>
        <mxCell id="iFOoKA2MuVSQarTfzU_r-47" value="Support &amp;amp; Monitoring" style="rounded=1;whiteSpace=wrap;html=1;fontStyle=1;verticalAlign=top;align=right;" vertex="1" parent="1">
          <mxGeometry x="586.5" y="440" width="203.5" height="90" as="geometry" />
        </mxCell>
        <mxCell id="iFOoKA2MuVSQarTfzU_r-48" value="Support&lt;div&gt;Engineers (3)&lt;/div&gt;" style="image;html=1;image=img/lib/clip_art/people/Scientist_Woman_128x128.png;fontColor=#FF0000;" vertex="1" parent="1">
          <mxGeometry x="610" y="440" width="66" height="52" as="geometry" />
        </mxCell>
        <mxCell id="iFOoKA2MuVSQarTfzU_r-49" value="Project&lt;div&gt;Manager&lt;/div&gt;" style="image;html=1;image=img/lib/clip_art/people/Suit_Man_Green_128x128.png;fontStyle=0;fontColor=#FF0000;" vertex="1" parent="1">
          <mxGeometry x="238" y="242" width="38" height="38" as="geometry" />
        </mxCell>
        <mxCell id="iFOoKA2MuVSQarTfzU_r-1" value="" style="shape=image;imageAspect=0;aspect=fixed;verticalLabelPosition=bottom;verticalAlign=top;image=data:image/png,iVBORw0KGgoAAAANSUhEUgAAAPEAAAGSCAYAAAAy3CdJAAAAAXNSR0IArs4c6QAAAARnQU1BAACxjwv8YQUAAAAJcEhZcwAAGdYAABnWARjRyu0AAEv0SURBVHhe7Z0JmBXVlcdrnMS4xahIlMTdHkZUgoqAogSFoLiAKygoCIggLoAoKIKKiIBEQGQRUREMi0SCBBBlkSUiBEUWQSREEVdAg2vAMMOkpn6Huk11ddVbmve663af3/fV1/3q1Xu1vDr3nHvurfP/D9fDURTFWvbz/yqKYilqxIpiOWrESrlj1apVzrnnnuv07NnT+fHHH/215RdrjPh//ud/nIULFzq33Xab/ED/9V//5Zx66qnOtdde67zwwgvODz/84G+pKBULKxJb7777rtO/f3/nnXfecX72s585J510kvPTn/5U3vviiy+cf/zjH86jjz7qNG/eXNaVd5YvX+6MGjXKueOOO5xatWr5a9Ozbds2Z8SIEc6RRx7pdOnSxV+r2E7iPfGbb77ptGvXztm6davz5JNPOm+//bYzY8YM509/+pMsvI8nPuqoo/xPlH8+/vhjZ+nSpc7//d//+Wsy4/vvv3feeOMN51//+pe/RikPJNqIuVn79evnHHHEEc7TTz/tXHLJJc6BBx7ov7uH/fbbT8Lr+vXr+2sUpYJBOJ1Edu/e7Q4ePNitUaOGu2jRIn9tZixbtswtKChwp0yZ4q8pysCBA13P6N2NGzf6a1x3586dbteuXd2rr77a9cJz2WfDhg3dCy+80P3www/Tvm/wvKO7ePFit2XLlm61atXc0047zfX68a7XJXD//e9/+1vtIXicO3bscL0Q2T3nnHNk3RVXXOEuXLhQvs/AdrwXXsLnEob32Cbqs+FrtGvXLnf69Omyf96vWbOm27NnT9drUP0t9sKxeaG964X1sh3bc/xDhgxxv/76a3+rvQSv++rVq93WrVvLNeIzTz31lFxjWLdunVwzrh3Lvffe63722WfyXiaY82V/YTiP+++/v/A68/fBBx90t2/f7m9hH4n1xF999ZUksurWrZtVvy8XeMbl3H333RIJeIZXLGyNe59M6KBBg5ybb75Z1vH3uuuuc9auXeu0bdtWQuAo6CrQv/3rX/8q/frrr7/e8W5aSeK9+uqr/laO5AJY5zUc8vqqq66S13zm0EMPlXVR8B7btGjRwjn44IOdM888Uz7HwncavvnmG6d79+6S1aXfzPtEP3PnznXat2/v/O1vf/O33MNbb73l3HDDDc6mTZucZs2ayfb8Vs8884x8R1yy0WsAHc8wHc+InJtuukkiLa/BdsaMGeN4DaDsa//995fr5zUO0m267777JPexL9D18hph6VJceumlcry/+c1vZL1nxP5WFuIbc+Lw+r7SSo8dO9Zfkzn74okbNWrkegbnzp49W6IBQ7r3gf1xzOPHjy/y3rZt21zPgFzPON0vv/zSX7v3OPFikydPLuJ1lyxZIus7dOjgesbgr92D8ch8PhtSeSgT+bDPOXPmFIkaNmzYIOfN+RtvCV7jVCxa4HNEFFyH8PGxX47bMyDXM3x/7d7rw745vpkzZxbun+PyGkb53KxZs2RdOqLOk0inU6dObpMmTdzPP//cX7uHLVu2qCfOByRh/vd//9f5xS9+4a8pHT766CPnrLPOcho3buz853/+p792L3Hv05L/8Y9/dH7729+Khwy+98tf/lK865o1axwv9PbX7uXss892LrvsMunfG9hHvXr1nL///e+OZ/j+2vyBNyVh6IXRjtdNcP7jP/7Df8dxqlat6jRt2lTGX4kQDKeffrpzwQUXFDluPoen57f75JNP/LVFITo58cQT/Vd7ro/XSDjfffedU6dOHeeiiy4q3D/X8Xe/+51EEOFIIBtI5pGdr1KlSrGo5eijj5ZowFYSa8QmdDrssMPkb2nBj0m4GryJg8S9j3GvX79ebuqf//zn/tq9cKPG3dgYSfgzJPC4uaLC+XxAyO95KKdBgwbFGi/OlePn/XDYybHxWUYIHnjgATF2wmHgmoTBGKtXr+6/2gvXAGgACKWDHHLIIXIfcP1KCt/h9a8llCY8L0+TQPJqxHgmJmWEl8cee8zfIp7jjjtO/paGFwrCzVqpUiX/VXHi3qeV5ybjRo4651atWsl2QU9mOOaYY/z/yg765dCmTZvI4+/Vq5e8z7i8gcji8ssvl34mw394SvrE11xzjb9FcTBGDCqMaTiCXj2X0DCYcXVGPIhyuA+jfg/byKsRM/Tz/PPPF1sI2dKBxyP0YaIHs7VKC37ssCcIEvf+rl275C83tUkaRS14gyRCuIn3J9SNOm6zmMaVRqtPnz7OQQcdJI01SS7+0oiRDEsiNMBjx451xo8fL78Df+kWPfvss6US7eSLvBrxscce65x//vnFllNOOcXfIh68E30uMrr013IFP1Y+Jjv86le/kr/06e66667Y5eKLL5btkgbXmxATA4w6brPQf4f33nvPWbdunUzEIQTOlwfNNXh8Rjww4FdeeUWOfciQIRJm20pirzwtPPOiCaeHDh2a1fACUzPpe5FEckOzShn2+OCDD/xXuePXv/61c/LJJ0vypzQjh1xByMw14/jD1ywK83uEuxZ8dsWKFf6rZENyjemnRFYrV67019pHopvP+vXrO7fccouzYMEC6c9wg5HoCYJnxVszvmjAK/IDMc68ceNGf+2ebQnnGY/NNeyTrOrMmTOdadOmFTtOxr0JN3ORUPnJT34if7PNF+CF8Jhff/11sYaG6IiE3bhx45y//OUvxQyZhNzUqVP9V46MIwMeLBiK8hsFt0sKXHcSbeHzYhSEa5GEvERJ2XM3JBRuultvvVVu2qeeekomLHDzmNAVQ/n0009laIIHIAz0fVq2bOk89NBDkqghRMTLMO8aj8n3MMCfSzjWG2+8UZI99AtffPFFyQnQymMA8+bNk1Ca7O2+wtNblStXdgYMGOCsXr1aHgahLxucuBEF2W6MlYaGm5prQaaYiQ/0h+nzbtiwwenUqZOEmQxzYfSEzjSUJusMTJI455xzpFEkoUUfk/OkgWS4jHA1SXC+99xzjzQ45nehMWMyzRlnnCGjCraS+I4MNxde+LXXXnM6dOggQzEku1jIqNK/+cMf/lAkI8qQCBnTgQMHyoMRvI93oL/au3fvlLOb9gUaDxobZiPt3r1bEibMXqKh6dGjhySCDjjgAH/rkvPf//3fYsAk/zg3vB9diHTQRSHLjMedP3++89JLLxU+DQaE1AwVEf0wnDR69Gjnueeek6w71xLjNtCYPv7443LdaUg4T4yCzzCumzTIiJN0BBoYngLjuuEk+J347WxFa2wpiuXYkVJUFCUWNWJFsRw1YkWxHDViRbEcNWJFsRw1YkWxHDViRbEcNWJFsRw1YkWxHDViRbEcNWJFsRw1YkWxHDViRbEcNeIQPA8bLBCXjwICipJL8mrEYYMILtTPovo/5UN37tzpf0Ix8BA7VTNQZKCYgaLEUWaemOqQVItAnoNyrrkshmc7XAuqY1CEbvr06UXK3yhKmESE01TpGD58eE7qT5UHMNpwjS5FiaNUjZhSMsiSUMdp4sSJRaQ8cl2aVlEqCmXiiSkqV7t27SKF16jPREFyCCpHUMOJqo4UZKPAGa/Z1kClwlmzZkn/mn42n6E28p133ikFzeM8GsX1UM2nQBqfoVIl/fNUoSuKAea4qMEcjBxonMx3sXAOYTgWjqlz585yLmxH0TtK8y5ZskTOi/OjcB01rgx0N9g2fO5RUC6WUJxrQKF0DcXLP2UaThs1AUNcbWmM6/e//32x9ylAh/wlBoUnNyoMGCiF9ZDdRLIjnDijUaDo27BhwwqNhXKmVKnMV7lVIxvKMVFh0ZwLReiokJmL6pucJ4ZLmV6uwYQJE0R+VSnflKkRB2tCAyVUw7z//vtSQTIspkUReMrUphsCIoSnEqPxSHhudIOiMr7sA6+ea/DYVKdEdVBRck2ZGDEGxfAJnsJAKFxQUOC/2guGVa1aNWfOnDli9JMmTRJRLgqcv/766/5WjmRyqeLPNhSNR93PgFwHXhuooRw0VEJXQlk+Rz1m6innmuXLlxfZJ0XxOR/qNbMQelNLmxK0RB2zZ88u0qCZXALvsU0clKTlOqAwiCQsdbCPP/54/12lvFKqRmz6dhQw52Yz0pfUPqbYe1TtX94j9KUwOvWkqa/MXzLaBoqYsw01qXmPav6333574Q3PfkzSDKPZsWOH/E9ijVCc2tR8juPic7mGxsVEEjRIffv2lfOhMDsLhdqNauK+Ql+YRou+MdeY/INSvinTcBowUgyJYu8YUhhUC8J9ZwTRghImePCwvi+ezShFgOmDBvuIGLGRIzHgzXIJobSJAqBmzZrSaChKrigzIyZcJKOMbhFZ6jiPcfjhh6cVGkeSI6zKhwIDSyrw6uqpFNspVSM2fTuWRYsWiaQKIWyUB04FRhs0bBT6ycYGQTw66AFNHzPosVFNJGscJErJPwrEtk02HP75z3863377rf9qL+FjfeeddwqH0jJFh4mUVJR5OF0S8J5GJxfIUJPBJmONKg19YDSBTN83mDSj0TCQzBozZow0AIzh0o9ElyeOYAOwdu1aGcbCwFA8RE3Q7C8Ix0qf10C2/cEHH5Q+Ovvk8wyP0cDFwfBTpnKpOk5c8bDSiAGx8rp16/qvHLlhUfEjM8vEDSN1Gk6aod6HURuYOcYNj0hZixYtCpNtUfD9RoCMRBXjyjQKHAcZcfNeGLLRwWPl2FBIZJ98nm4Fnt1AYxFsMBgi47jTTfbQceKKibVGzBAK0qWphoQwqo4dOxZJmpFUQuKSz4ch0cUDGXGwL2RSw5Ac69atW6yyXibHGgTZ0pIoC3KOmagjKuULa40YGKYhDO3fv79kfc0NjFFhuFOmTJEpjuHk1XnnnSfylnhsPsPC/4TkeLw4yFzTj0fHl33QSOBhn376afnOVASPtUaNGoVem+9BL5njNXC8yLjSoATnl6cDGVhmhOk4ccVCpU0VxXKs9sSKoqgRK4r1qBEriuWoESuK5agRK4rlqBEriuWoESuK5agRK4rlqBEriuWoESuK5agRK4rlqBEriuWoESuK5agRK4rllNqjiOyGcrEoLFAz2lTQoPYVD8DzHOwJJ5xQ+PA+tZh79eol/xt4BhfZk6ZNm4r0SVxlSvZFfS2eJ543b16RffHcL/uioka4uJ6i2EipGDHF6J544gnnpZdekrI2POhuys9QFwsju/zyy+WBeR5sB2PEwW2pSYVxUnqmVq1a8p3hahqUiEVjCe2muH0Bhnz33XcXKYOjKFaCEeeTbdu2uS1atHCrVavmDhkyxP3yyy/9d/biGabreU3XM0B/jSuvCwoK3GXLlvlr9rBr1y53/Pjx8n39+vVzd+/e7b/jujt37nT79u0rn7v55pvdTZs2uZ7h++/uYevWrW7v3r1lm27durk7duzw31EUO8mrEWNwnjcVg/M8azGDSkWcEYPnUd0OHTq4nvd2t2zZ4q913VmzZsm+0hknhk+DwvezH0Wxmbx2ChEtQ4Oobdu2sQoPJeGQQw6RmlWExyxAzecXX3xRStMSJqdScqCGFRUwqXqJ/lJUvWhFsYW8GTH1jufPny/G1KRJk2LF6vYFvhsplwMOOEAWoK9LLWgK3lWpUkXWpYK+dMOGDeUzpp+sKDaSNyPGQ6LMUL16dRE4yyUoSFDnGW9cqVKlwnUUb6dQeyYen23IdPMZPqsotpI3I8ZTUsyc0PcnP/mJv3bfIPOMGgJZa2RTWrduXRg2I5h28MEHpwyjw2SzraIklbx6YpZDDz00VhkhE4wcKgvF19u0aSNqCQMHDnTq1Knjb7Wn0VCUikjejJgwl2X79u0Z6whFwTgvxtuoUSMp2s4YMOLiTBAJhs2E7ITGeP9MMdviwRXFVvJmxEzaYIYUukBGG7gkIMiNQv6oUaNExxgNo6gwGA1jPP6qVatkxlY62IY+O0LkzBRTFFvJqxEjVIZ8KP3YTAxrX8BjI1A2d+5cZ8uWLf7aeNiGbZl+mevEm6KUJnkzYiDkrVatmsiMMmacTxgyuvLKK0U6FE2lVGE14T1jyh988IHoIEWJqymKLeTViH/1q1859957r2SSu3TpIg8kkGEOgodG2Ju50vuSnKJ/3KxZM3k4AgO9//77RWg8DOt69Oghhn7LLbc4jRs39t9RFDvJ+wMQfD1PLSHt+fnnn4sCIeO7JmNN4ov1cQ9AoCR4zjnnyLpMICPOgxGTJ0+OfQCCfbdt29a54447CvenKLZSKk8xAQaEsj5JqnXr1jm7du0Sg2bqI+LZeMTgE0UlNWLglHjskc/SH6eRAAz6t7/9bbHHHhXFZkrNiBVFyQ957RMripJ/1IgVxXLUiBXFctSIFcVy1IgVxXLUiBXFctSIFcVy1IgVxXLUiBXFctSIFcVy1IgVxXLUiBXFctSIFcVy1IjzCAUQqAvGo5Zff/21vzZ/UFR/xowZzmWXXSbVQe+7775yUwWU2uAXXHCB89hjj/lrFEOijfivf/2r3Iw8W5wK/YH3PEM9ZsyYQqXHW2+9VYoHpsI0MqYksFmojdapUyd5FhslSiXZqCcuJyD3umjRIimgQE0zjJkSv0bmJhUUZ6AWGqWBWY466ihn8eLFUuN72LBh4uErMuiJtW/fXoo+JhE14nLCV1995Wzbtk2kabIt/EeV0HHjxknVFZZXXnlFjPjSSy91nnnmGeeNN97wt6yYvPfee1JUMalRiRpxOWO//fbLSdmhypUrOx06dJDQHIOu6N44yVQII8ZLDR061Dn33HOlz4dy4rPPPhtZ1pZytqg53nTTTVL/y2z/3HPPFavUaeB7+D6K/bE9+2F/JU1m0eK/9dZbzp133in9U/Od1ByjMmgQ9kHiDK9JLTGOg+1Z0uUS0oG6JDW5kX41Kh7B/APXg6L+XCfC92ASLeo68jmuC79HHJwf52l+K8oQk6yLa0Q4R7YjfxImXWKR3+2ll15yrr32WolgzDFyDTl+zpF1vObaco15XVqJykwp90aMIgSF8SZOnCh1sOknkvAZMmSI88ADDxQz5OnTp0tSh0J+VMRke25mtJ8ef/zxYjfTl19+KdvzgyMeR0KJG48b+PbbbxfdqGzgxhs0aJAcM8X+rrjiCjkG+rp//vOfReeZhJOB/iw3V4sWLUSOBlVItmehqui+wI3MQkXQsDTt7t27JZGGUXKtaHhMubZvvvnG6d69u1wX+uroaXE8aEcTnptzC8N5XXfddXKenC+fQVUTFRB+r1yGs5s2bZLjorQxgn8333yz7K9evXrOxx9/LL/zGWecIeu4plxbrjGvud5c98RAobyksmzZsozU/Ddu3OjWr1/f9QzNX7MHz8Dc66+/3m3evLnrtfD+Wtf1bgbXa8HdatWqFfvuRYsWuatXr5ZtDN5N6nreQfbBvgzejex6N5h8z+TJk13vh/ffcV2vcXAHDBggx+8Znrt9+3b/nXjYJ9/DZ/gs3xFk/fr1bqNGjdzGjRu7mzdv9tfuIe4apILv79q1a+TxBY9l/Pjx/tq9+2nZsqXrNVjuhx9+WORacU28RkiuCZ/jtYHtuL41a9Z0W7du7Xoe3n/HdT1P5zZp0kTOj/MMwm/Hb8ixhM+P34/13Cth4s6P/bJ/jmPOnDlFjj8K9hn+7ZOEFZ6Y8IowJm4xoWQYNIzXrFnjdOzY0Tn22GP9tXsKzSPQ5v2IjvfjFwmTvR/LqVGjRpF+5f777y9ZW/ZBnWwDrTniboio4yHpjxrwXkivVq1a1V+THrw6BfbxQnj0cE1sMsj33HOPJFnop+YD756QUHHChAkSeXAsXN8wJHvwXnj74LUi3H755ZflmngNaBEPznaUDObcUAQhSjIsWbJE1DuoBc55BuG3Y1+5gmu3dOlS6a5wH+Qih1CWWGHECLOZ4Y+oBUMJy6fSP1u+fLlkXtkmDOHQkUceKX2wcF+X1ytWrJC+EH09Jk/06dNH3gv2Sb2WWQybGxNDD3P44YdnZcSE3hS3b9CggXPYYYf5a4vCDX7yySdL45SriRzvvvuuyMTSIHK8/E8Iy74o6M91CsM26FiFYRiGPi/Cd1HXBIOh8eS9lStXyjpCdi/6kfMidI2CmuHcB/sK+6L/zL64zrYbMOTViE3SIbxkOymDfogZ/ohaUHxAiykI/TTUGClUb5IkwQXDZvyP/huJG8AL0Zflx6X/QzJr69atYqTclGHwnDQejKvmAowYedbwuQShb8bihYCFfdB9JThOjPckGcRv54XDRSKYIEj0RKln0J/k+GjA4iB3QCOFQgdgWEQ4DI0FBQTyQWnuq7TIqxFjPM8//3yxhWRNvuEGx1PRgqO5REMQtZCZ5KYDki0PPvigc9ppp4liIiEXCTH0pDiXMBgxN0KupGBoeMqC4DjxI488ItcFjxjsHoRhEkk42QUliQ4wLBpcDJskUz4hIUejzfGXBy8MeTViWvHzzz+/2BIVhuUavAveAgNt166deJeohRvWeFL6x2SrySpj/Ol+ZLah/2g8eRgynHxfphiNZRqHOLjhWaIyxkkAeRyiCSKcODh+uizGE3IunDvnHdcImM9kQ9T1N/cFv1u235dUrOgTlwRuDMJm+pibN2/216aGmwhvQLgXhBvonXfe8V/txRgd0x3DQ0/AfteuXeu/Sg+NHl6R72NoJgqE0el3knCK6nOWNYy3MlFkwYIFct3CECGRbyDqqF27tqzDK2JYREJ0f8KYz0SNzZooKuo3xrvz+wfhvqDbwDWM+k1tpNwaMZB5xCgZYwyP19KnJHtNUsdAX5REFT+u6W/yl+3mzJkjr4PQj6xVq5ZkY8mums8Anogx0VQTG8KwfyaWEMbTHw8bwYYNG6T/T2Kobt26/tpkQbaanMK0adNk4TobuD4klZ5++mk5T7otQMTDGP5BBx0kY8/h34qkF92aKEhQ0WgwISQYweCBhw8fXsyIgeM7/vjjZV54MEMOCP/RrQh6aRpqoq2ohhUZXZJ8ZOvLiv/sY9KuCQQtYQykYcOGhT94FLTQM2fOFM9LuG444ogjnEMPPVSGbZiZgxHgyZBaZfIGNwZ6xngBYFsmHDB3mGEchjwwJtQcmcnDDxU8FjwI3hjPSSKIm40WnuTYo48+KhMVMEzCS/aTru/Mzcx3Y/gvvPCC8+qrr4qHIYvL93PMRAn8DSec4q5BKugfMkTGzZnJ8UG6/RDiM0OLa8U50ACS7GJIiWs5cuRIuS7cdsEMPNeJ/jC/99SpU51PP/1UMvCcN0Z/4403yrUI75cEGvrXTBDhXLZs2SK/IcNjBQUFkdef/dIVIrE5adIkMWTzu5ET4LrwO5sRD6IGGglGO/h+5pJzDrzP8XLOTFLJ5GGTfFCuPTFGwfgtWsUkpjBepgkyK4sbjfVnnXWWv/WeVh3xccaK582bJzcd4RpDTYwdR4FX5GZllhZGzPfjyRnP7dq1a9Yze/BGNAA8icRMMRogvpPx186dO0vDw42cZDAcjn/AgAFimGS5iUrwZg8//LBcY7YJgiGQu+BzdCnwhiYa4frTiEbB5xh35tlpEnFsizHzuzPmHHf9zzvvPGnYmZVHg8M1nj17tszYIlcSbNBYh3GbYyFaY794bZwC0RgOoKxQaVNFKSHME+AhESIjchRlRbn2xIqST+juEc4TmpclasSKUkLIsfCQRNSMttJEw2lFsRz1xIpiOWrEimI5asSKYjlqxIpiOWrEimI5asSKYjlqxIpiOWrEimI5asSKYjlqxIpiOWrEOYLifzwuxyODSm7JVB2zopJoIzY/XnhBLoWqDdlUzVCKwsP9yJHw7Gx5qTVVUbHCE4frTlNy9Mknn4yVA6lIoISIHA2lZpSKiRVGTEVKU2OahfIrI0aMEG/CzZtNRcnyxvfffy/lYnJVSF6xDyv7xJRhobAaUiGUwokqhqYoFQVrE1vUOKLaJN6YWkeGYIKJSpYoGlBGlZKnQajK8Pvf/162pZ9NzS1kOKnDFazQGIQaSxRkM1KYyI6iqhelAwXp+p2pEjY85s1D50GZT3OMnBsLx250qKj9ZHIG+UoAIWHD+Rq5VeqKcT2iStNy7lSuNHKvXC+6P0RRUY+ws47yvkbONbi9khprjRioYkghu6hiaNQ/olgdnhq5ECoYAjcL6g7cgBSho1Ae4TrVCvHoCHcRoofrSBOyow7Bd2KQGBNSL4iqtW/fPrJecklh3xglxd4olWskWSnqBhScozBb8+bN8yJpGsZcM46H0rwoeFCcjuqOXA8qWAavF9eHwnLkLTBgjonrRf8dNQ4qYAbh+ylvy7lQwP+SSy6R7SimRyF/ficlBd4FTCyppE23bt0qcpeeMcr/BmQo69Wr53o3vDtu3Lhi8qDvv/++yFSG5U7B61+6ntcUWc5Zs2b5a/dIcvJdHMvgwYNF6tSAdCcSnnwmLH+JnKZ347vIa4aPA+LOj33zfZ07d3Y9j+avjYb9sV/OOxvSHVsQs4/w8XDuQ4YMcWvUqOF6xu2vdV3PiN2pU6eKtGyQzZs3iyxreJ+eB3a9aMP1jFgkToOsXLlS5E7j7gPFEmnTIIRueD3CTMIv6hGHBc2oDUxBcVr2YOlRvAWJMTwZItjh2s3IiuBZKHxG7Wm8LxAaUmuZioaUVQ0qLxDW49UpgZoLODYKkns3rWhApRImKw28e0RK/HLd8Y7B4+Hcr7rqKvGYFLxnW8BD043gNwjCdkj4BJUo+Qz1tbnW3bp1K6wBbqCGFRGHEo8VRhzUJ6a4OjcO/cnevXuLAUURJa1JkXHC7DhZTqDoGTWm6Y+iiAjcdBSTp28aLHhuILTF6HIBIT2Nk+exit3QZQGF5ckn0E+lLncYzp3GD9WGcIaccXzqd6NaQTeFMJmC7QwRsgDZdRplrjm/bxhqh5MLUOLJqxGTYDHGF1yylTY148RGoJo6vySgWrZsKd4gDMoPUXKj3DD0yypVqhSrY8R6ZC9Jbpl+HpIs9L+PPvpoeZ1PSnNfmUDSEEPGW/IbhH9LGkQSiBixUXXEy5I0pAg//WGKspO3oC/NdwRhWyIdGs9sC+0re8irEeO5ciFtyo1gFAEQ/SZUw1DjIISOMlISXFGZ1HQgzAVRXjjXEE5DUm5oc80wPpM4i1rQVjKyJygr8DvT4CJBQ1IMhQVeI3sThEaCBY9uPq9kR16NuCylTaPA8OmnEcrFGTPel7CQfp3R1jE3XpzkqPlMtpg+dxATQsftq7Sh4aIfTDSEETJcFrUQLpMlp8vCsBDSJmSk0wl5ExWxpPpNoq6TshfrElv7AjcUHoVhp7gHFQi3eZ8+mgnJucm4iQnho24o85kwhPoIoCEERogchIQOOj5h0PelkUslb1qacPxoI5Ej4DzTgSESudBghqMhPh9WDyRqopGk343wWhgaSB0rTk2FMmKMiskRQJ8tLKFJWEfYx3qSZ+YmRAaTCALDQh0vOBmEPh2CaigohsEAqlatKvO7GRs12Vsgm4s6fxgaDo6R9xEeM1lc4PMk9IJyrJwTM9joV5akq5AOrsFll10mkQHjvsGJNcA+SVYZfWC2p3+L0mDQKDmPCRMmROoFMw5ON4LJIcHv53wRR2NCiRJPohUguGFbtWolKoGZDjOQNCMJgwofiZcwnC4TCx566CEJl0mWEfYTBpJJxRhQ7mNiA5lRAzcp/XEMCCVEwkUmkOCd8Zx8Fx4jvF8MmFlIzBDjZmX4imw3no2ZXyTpwueHt+/bt6/kAVBGRGeZBgEvhnGPHTu2UMCLbRkWo4Hh+4kYkN00jVUcnCdDRhga509DEIbsP5NI8IbMVUdilKQf+8HTmmuG8iGTU8wkE46bhzIwZo4dw+Y6cWwkv9hn8Dph4EiR0hiGz5drxUScqOuk+GDESSXVZI84mPQQnnQRBe/ff//9rmcMsg/+8prJIEzuiILJC0xuMJ9hEoJ388rEhVT7XbdunXvbbbe5p512miz8z7pU58eEEs9A3JYtW8rED5ZrrrnGnT59epHJJuA1EPKdbOM1MO7cuXP9d+Ixkz3Yf9zC8Rk8Q3YXL17stm7dWs6B9znfRx55xN20aVORa8a2s2fPdq+44grZjuvlRTiuF2a7TPSIuk6cE+dmPsN59OzZU86tJPdBRUK1mBTFcipUn1hRyiNqxIpiOWrEimI5asSKYjlqxIpiOWrEimI5asSKYjlqxIpiOWrEimI5asSKYjlqxIpiOWrEimI5asSKYjnl2oh5MJ06Xz179izycH06eB6ZUqk8Q8uztEo8FAXo06ePXGee/1ZKn0QbcSqZkyBG0iTbKprlAYoNUBKW0r1In3C9MChqVq9ZsyZWkqaiYO6h8JKpPC7vU3EkfH07d+4s352ERr5cVPbAiKlSQV1jbt6KAJEFFSUpJ0S1DKpmUAsMKNpHGZxq1apJBY1UlUHLO+YeCl4foAQTtcCotIIxU0csCMY5ZcoUp3///rHXl0qgDRo0kCosUSWSSw2MOKlkWtGBKhFUi6C6RkVgx44dbrdu3eTaUP3i448/LlaNhModkydPdr/99lt/TcUk7h6i+shrr70mFUQ6deok19SAPI3X+EmlFKqfICXD9kGQ/Bk2bJhsg/zMtm3b/HdKH01sWYb3mznjx4+Xgn3Ue0a4jGqRwXpggPdFEZKaWEpxUsnjUkdt9OjRkhehWCF1xsI1yKicSu006rGtXr1aigCWVWhdro04rq8c7GujuEDRPPo7Q4YMKfZ+kKBsKgXcunTpIhIjLPzPuigwPKRZUPhj26BsZ9y+4kBOhjCPQngdO3aMVMCIg/7xW2+9VSgfavp3Q4cOlesQhu0pcEf9aI6b7elLeh6+yA0bvC6G4LUn+TV16lQpMM938JfXcdU5WT9//vwi++W7OM50fdhs4NrR5aBooKmyyb7RwqK4HzKu6EfFQcNJJVCOzfPqzqeffuq/U7pUaE9MpcgBAwY4kyZNkv4NSyZgfAi5UZGRoulUnqTqI0YVrp2MARvZzuXLl0spXCPbiTGhlpANSItSPpbvOeigg/y1mYEB03ggx9qsWTPx5FTtpN9MBj9YLhYjReKV86NP2LZtW5FwpbIl3xNngGGoiEkjieGjj9W6dWvpU7I/FD24PkFoTBC780JcqbtNf5bj9EJiOU6OnwqiuYJ64EF5XGpjkxCsV6+elBtOB78Bull48nBN7VLDu4iJZV/7xHHrzfd6Rid9y6A0KsTtl++hD4Q85/r16/21eyU++czYsWP9tXtIJdvpGbUcXybnCD/++KMcr+cN3S1btvhrM4djWbhwYZH+HX1pKlFyXpy3gaqfHHffvn3l/Ax81osGilTcjKr0aa599erV5doEt9+wYYNUCg2fB/sZNGiQHAtyscH9cpyLFi2SPiwVNzPt66e6h6Lkcc325BMyhcqltWvXLrOcjBWeOKiKGLUYtfxswSPhDbPJLOKt6WsGpWgIywgzyWCi8GckXbzrm1K2Ey+IR88U76YWz0brbyRmsoHQlNAv2L8jJKTPx3kFuwMUcyd0PeaYY4qE7HwWdURTWD8dKFpQNzq4PR6O2tIffvihDJEZCMFffvll6adyjYP75TiNoN7bb78tcwBKClEEv1OUPK5Ra0wnPxOEcwtK6JY2VhgxxoH8StzCTVESMS40hcMaxelgP8irhhNJDD+w0I/EeCHXsp3cfAyLoI9EWFsSCJO5cSnUToH3pk2bSpgMweQOxsuwC2EwEiucV0ngvMNDXJw3qho0HDRMBoyahiNKlhb4HIX7eQ+htmzIVB6XroNt5NWISdaYCxdcsp2UQZ8IVYG4hckOqRIQcZDVzSYxBOwn04wvY7m5lO00ukX0iUsi4EZfj4gBdQskWehbEg2gMhkGIzb9ZPrzeEf670QV2cD1yjRqIJ9A/zSVsDp5CBqxTPMXBuMI0snjmmgpLFeTChpXfutsvHcuyasRk/k0cqbBJVtp03zBDZNPuBFYciXbiTFgFHjMbDOhJGyYHkkoTuNKcoq/eGMmyURBpIIsKcMoGA3ZWjw3njkflKRhyhTjCNLJ4xJNYfCE65km74ggaKzLSu0zr0acNGnT0saE2LmS7SScpGHkuxiCCQ7zpIPMKaF9u3btIsc948C74K0YQhk5cqRkc5lBl4lCYrbQf+b7o4a7DPn2ehgwQ4BvvPGGs3HjRn9tPDTSiKiTJyDKLAus6BPbSj5kO+kTEhIyVvzKK68UG6KJwwil06gE4fOZeFaMnmSUGeLJx5goxoN+9IIFCyIbPXOs9Ftr167tr80tRCoI3ZHYY1zaXLcoyBPwGxCWE13SBSkL1IjzSD5kO/FAiHoTChLeMnc6qv9GgohJC0bjmH454GGCHpywkYkXYeh3hydWcNPiJbPJC2QDqorMRWZcnSWYTON6kYhCmZHJIiSn8kX9+vVlLB/j5FqjIx1uLAmf6Vczb5ruCBNTwsnO0kKNOM9wU5IYmjlzpszuYZokLTw3CXKeTGrIFrLGfJa/JPXq1Kkj300/j4WbvG7dupKIMgZLUodJKeQkmJTCMXCDMouMhiYMw28XXnhh4bYs/E+2Gq9jZExzCVlnng4i2UZfnQQcSVBzvZh4QsiKlGs+h3RIdHFdevToIY0c58u1MNeXa023kGuJAZPhznbiTS5RI84z3Gw8WYXR4T0Z2pk4caJ4M26CknoUjJL5uvRTMWL6qMz5ReycG4pZT8z/NckbPDHHwE3IXF9mP+FN2CbKiOmfcvMSOuPtSQiR3GJ7pphmm9XPFK4L+2AmHcNozBPnWIlmSLAxl5lt8g0NCg0HuYAOHTrIa64vC/12svVEMIjVp8qmlwYqbVrG0Kfq2rWrhIl4bUXJFvXEZQjJG6Ogn+2kE0UxqBHnGfpU9E3D2VZek3iir9ywYcO89DGVioGG03mGjCpP4tAnpe9JH5X5z2SJmbRBCM24q8keK0q2qBHnGRMyk8xizjJDPgzPVK9eXcZcGfONmiesKJmiRqwolqN9YkWxHDViRbEcNWJFsRw1YkWxHDViRbEcNWJFsRw1YkWxHDViRbGcCmnEzKIqiRwns614PI1nSHnetqISpfiglB1WGjHPwfJcLA+1U28pDt5jG7blM+UdIwkTXqhwmYmMp+2Y3zt8/kjWUHyBUkipSu9SQIFrSGECGng+S8kgStpSmSWp169CemLmKuOJly1bJtUuMoU5zzygTkH4JD91FK7TTaE+StTmWgIlqVAeGI0lc/4Uhl+8eLHTpk0bkaaJKjBIzTDe52EVanxR64vP8j0UXODhfyKw6dOnl7gGd77QPnE5JFynGw80YsQIiUa4ibOtHW0blC0aN25c4flTeAEjRimERpgnyIJs3rxZCjOgjogiCI07qpPB60d5XwreU9eMdUl65ECNuAJApco4Gc+KAp6VMjsUGsSgjTcmP/Lss89KWSPK/2DE4XK4XD/K/FIaCLlTSiKhTpkUKqwRRyVngn1oQlB+bG5+nvklkRXXx94XGU+8IjeR2Z6+GIXh0JbKZX+emliEhnxXuDomekiEi5wDx4C0DNUbeYQym9ARj0X/k2MOJ/7oT3Jepq/J+XLe4agg3W+wL1SpUkXKylKvy/we1MyaNWuWFDOkMF+qipXU9qIhoBLonDlzEuON1RPHQEiFUgD1ormRo/pRYbKV8eRmIOGC8VMsAHkRkigUhudG/uKLL/wtc0NYxpPjQeGBfVLH+qyzzpJQHAE0vDXVJeP6kGHoa+PJOI/+/fsXyRlQ3YT+OM9UY5Dsg3rc6EFT1TIuvC/Jb5AKDJeF4oWm0B9KGEB/N5Pif3hian8j6obWVhJQI44AT0XdY8rLbtiwwVm0aJF4j3RQQ5rWGiPm5uMGpQ924oknikpAUDWBG5LieNwM7AeNZD5DZUzK+eANsxUNSwX7pnIjx2L0hjA8DA71AtQIMSoaD46bfiThN8fP51JBUujBBx+U/2mQ6JMa8MCDBg2SipDsg3NlH3wvRk+SEE8YpqS/QRw0WHwH34UCCclNvD5RFNeE6p6ZQKhdUFAgDQuNcBKw2oj58ckg8uNGLbwXdYOkAy+EV0I8OpvSrNnIeBIaUjweQyGMC8qqUHIWpcJMRK7TgeeJkvGkESFBQ2hJedtwoT5uVuo7c4Nj0HHekhuZhofzIwqh7xhk4cKFIuRGzergPghbuS54NTwuBhWkpL9BGIyXLgTlfSnZy2gECS7g2vBeNlpZHEtJZGXzidVGzJAPHssMJYQX3iuJUgEhIcXCs63oT8Nh6jwb+I4oGU90fuj3xpXnwXOV1IgzkfEk9OcYqFkdp41F3S9kWfFeW7du9dfuhfAcz8v3EHYjwBaErsTy5cvFM/N7hCGsZx/oIoeNuKS/AdDP5bw4f64h/6PUQE6AyMPUM8PA8yniVlqUiRHHTUogzAr/mKmoV6+ehKFmKCC88B7bZAshcVizKBP4XKatNB6M1j8bgfNMyUTGk/4cITbnGVfji/U0glH9UTx4v379nHnz5smwC4oTYdBMQsuISMAktIILx0ikhDQM3xekpL8BBMeJESvnvmKIiEL0wWiA7ehacC0ylUrlOmD4/M5J8chlYsT8gEbmNLi0bds29oYqTTiGfB8HRkzImg85kkxkPLlpTYa2JBCCYihEF2Sloxpf4+kIyZmuynFFLQiYhWVm9+U3CI4T06dmH1FKkBghRkzozlhxJtBXZ3iJ6KqslR8MZWLEtLBhuVMWWs596f/YBDc2/bGwBzLQ4udzUgZGzdhpKtnVVF4HgyDjjHEyMYL+Zvh4jafDQJFUxSNGLRhZPiKSdBCqo/vE+ZNgC0cbUZBsZKydbgaC50nA6j6xzTDEQjhNxjTq5sEzkIjKF0QBNJrckHEPMhBumxs2yshocBEeY5jsD3/4g2Tbg+dClEHUlY2nK22MVCxem0L+RA9xMOTH2DZeGFG1pKBGXEYQiuIFGHZZsmRJkZuHPiJDMPmccI8BmiwtEz3CY9KEjQipsZ7EWFxoy3r63U2bNpVjZnpn0JDJQB922GEyfBXeB31tstckosoKGjOiAfrgJP7Gjh1bLKLgOOkyMG5OEo/tMOSkoEZcRpAw4mkZQjI8GWEpM5row6FGSAYVA8gnTFxgIgpGhBF269at8BjwNEz2532yu6lgSIxhJr4Pb8w4Nzc+MKbKVMbwPshqM7yGJ9+XvnkuoA9N48NoBklABMw5VnIJLGTdeTiCrg/vRyXxyhI14jKEUA6pU4Z9kBvF8xG+Mj7LhHz6lPmEPiE3KdEAM8wYr+UYmJhCVp/poummIhrwZBgmyhYM5xCeEl3wWb6DCTBkqMmSsw8aCIyG9YwHlzUMRfFbMD+aCImogYaHCTF4XSbAMLuNGWclGfbKJ6oAkVAoQICnJqE0ePDgxCRRlOShnjihkGxiphPhaHj4RVGCqBGXEYyrUi2C2UphyOaSbKKvycT8pIVvSrLQcLqMwIiZ6cQjbUxEoF/I2CtTHMmEEkbzUAHJHzViJRVqxGUID0SQ2GHqIt4XmARCVprnW3n2VVHSoUasKJajfWJFsRw1YkWxHDViRbEcNWJFsRw1YkWxHDViRbEcNWJFsRw1YkWxnApjxEalwRRpy0bSVFGSTN6MmGoJxmAyWXiuNRdyJYpS0dBwWlEsR41YUSyn1B6AoE9KHSlUD4DqiNkIfO8rZb1/RckXifPEFE1DmIyC4qeeeqos/M+6uIJqVCekOBvV/qnbRB8biU3qVEXJjxioJklROLblcxRtQ1MoCAoGXbp0kfKu/OW1oiSJRBkxqgh4SwrFUZoGlQIW/mcdlRfD5UR5j6QYD9hTZA7pEKBGFUJgcfWOMW6MkuJobMvnKIRG5cmgIVM0joWH+PlLoTdFSRKJMWKMk2qJS5culdcoBmCgK1askOoWgNIAFRgNGBuKfiVRbe/Tp4/Iiobh4XyqbSiKLSTGiBF7RkoDKKyOUj01pqjP3KpVq8JicciB4jkpUP7iiy8WVsRATYH6xhgm/V/KjSL4FVf2lRKrfJ6SpFTXQITMQONg1PIosM6CmgF/UQtQlCSRCCMmt0bNY6NMR//UyE8C5VpREQAj7oxCQVA5gHI29GnNdhgdWsFhvVwD21P3mbpW9HeDBcEpfG7yfRwHsp3si7/B41KUJJAII8brYZgGklTo6pqJIHhAk1U2kJQKKu9TpT8bMTa8vQEpkpLoGCtKEkhUYktRlOxJhBHjQYM6vZdffrmEr/RtwwsqgnhnhLBYDJR5zUSaUlHKG4kwYsJZxLgMZIdR2DPavfRRt2zZIrKSmzZtknXo6zKGbCA5NXLkyMLP0GeeMGGCs2rVKnldUnScWEk6iQmnERk3/VQSXMOHDxdhK7wuqnVkhTFK420xfCZ3mL5s+DMUY3/44YcLx41Lio4TK0knMUaMojy6r8GhnnTgvVFJyGdSKqyQryhJI1GJLXRhp02bJhM48L4GDBt5zEGDBjknn3yyv9YReRN0ZJHJ7NChQ5EGgM/zPcEsdElo0KCBjhMriUYVIBTFchLliRVFyR41YkWxHDViRbEcNWJFsRw1YkWxHDViRbEcNWJFsRw1YkWxHDViRbEcNWJFsRw1YkWxHDViRbEcNWJFsRw1YkWxHGseRUTChTpaVMKk5A5lcqg1TYkenim+6qqrpObWH//4R6dXr17+p1LTvn1759577/VfOVI1hLrVkyZNkr9mH1WrVpVnidlH5cqV/a0VJRlYYcQUzevfv7/ItFAM/qSTThLjgi+++EKM7dFHH3WaN28u0i1jx46V94D6XJ9++qmUxQ1+Di666CKnY8eO8j/bIAWD+HjcPqggQvURGg3qVStKIsCIk8ySJUvcmjVruvXr13dnz57t7ty5039nD573dJcuXeouWrTIX1MUtu/atat79dVXu9u3b/fXFuWjjz6S96tVq+YOGzbM/f777/139sA+Vq5cWbiN5+1dr3Hw31WUsiXRRrx582a3cePGbqNGjdwNGzb4a7MjnRHv2rXL9cLvjIxz27ZtbosWLaRB2bhxo79WUcqWxMaE9E//9Kc/Sala+rjBmlu5hFB91qxZIutCHS/qdsWBfhO1vFCroKyud/38dxSl7EisESPTsnDhQtFIogxtvkDIDS655JKMZGCosImGE4kvL+z21ypK2ZFYI/7ss89EnRADRh0xH1BLGlWJE0880TnhhBP8takhA15QUFAo7KYoZU1ijRgvR0H4fNaUZtjq66+/dg499NAiWetU4K21FrWSJBJrxEYuxUiV5gP6tEaHWFFsJa9GzMQLI08aXB577DF/i3iOO+44+ZvPkJXxYJQnjNfPBBJuGD7eWD2ykgTyasTnnnuu8/zzzxdbrrjiCn+LeBBMq1KlimSPCXvzAUaIEX/00UfO5s2b/bWpQajtgw8+cI4//njn8MMP99cqStmRVyM+9thjRSgtvJxyyin+FvEcc8wxzumnn+4sXbq0UAkx1zCcROKMRuLVV1/NSBp15cqVMnOsRo0aziGHHOKvVZSyI7F9YjLS1157rYTTQ4cOLewj5xqGi9BXYkx65syZKcd+mX6JvCpe+LLLLvPXKkrZklgjhvr16zu33HKLs2DBAueOO+6QBx+YCx0E74m3Xrx4sb8mOxgyuuuuu2QiB/OimXe9c+dO/909sE8evrj55pudjRs3ynYYsqIkgcQ/AMFYLt7vqaeekuTTkUceKf1YMA83fPfdd4UPQITh8zzY8Mknn4hwOX3tKDBOZFJTPWTBvh955BGnYcOGKWd2KUppYsVTTBwixjplyhRn3rx5kogCjIo+bcuWLeVv1IyrTI0Y6BsjIj5x4kRn7dq10jhg0PTNzaOIeG5FSRLWPE+sKEo0ie4TK4qSHjViRbEcNWJFsRw1YkWxHDViRbEcNWJFsRw1YkWxHDViRbEcNWJFsRw1YkWxHDViRbEcNWJFsRw1YkWxHDXiNFDU74ILLpD61BUJHuGkWMI111wjZX2V5JJII+am4eaJqpQZXmwzMFMBFPVFRckFiTRiHu7/9a9/7fzmN78pXFBpgKj1mRZ+V5TySCKNGNWHJ598UorXmaVv377y3m233VZkPSVwM5VgUZTyiPaJFcVyyo0RUzSP+lg33HCDc+qpp0pdrNtvv11qZcVVIKLvPWbMGOfyyy8v7GPz/7Rp0/wtikKdri5dush3m+9/7733/HfzA3W//vznPztXXnmlHN/ZZ59dWDMsDNcAlcc777xTtmN7CvhT8vebb77xtyoKlT0pRGiugdlek1n2UC6MmEzqoEGDpKQsJWz5e91114kBt23bVkrahuFmR4/4iSeecI4++mgJ01nQQaYoXxiUKNq1a+fst99+8v3nnHOOSK+SwUW9MR9geN27d3d69uwpRQE5PiRY586d67Rv397529/+5m+5B86JRoxi+82aNZPtKSBIgUC+A/WKINT07tSpk2TgKYR/6623SmMxf/58aaCo8qlYAIXybGDZsmVuQUGBO2XKFH/NXliH0v/48ePd3bt3+2v3Kvtff/31rnfD+mtdd/PmzW7jxo3dRo0auStXrvTXRjNw4ED5brYPbus1Fu6IESPkmEaOHOmvTQ/Hymc4n1RwHoMHD3Zr1qzpzpkzx/W8rP+O627YsEGOvWvXrq7nSf21rus1Wq7XsMixGfjcqFGj5ByC++T7+/btK+snT55c5DN854ABA+Q4vYbO3b59u/+OkkSs98TeDSbDNqg4UFI2WLaWgvCeATtr1qwp9JbeOYvSA/rC9913n3PmmWfK+lRQ75ohLwTGDXjkiy66SLLlDHERDeQSvOmMGTNEtypc57pq1apO06ZNpZg+Os4GQnyG3Dg2A5/jHDmHYAjO97/++utOkyZNJCIJfubAAw90WrduLftRko/1RkwN6vXr18vNG1UTGkMO3sAoIKLyT5iJhEsmMISFAYcLxleqVEmWfEBX4PPPP3caNGhQrJ42x8F58T6NWBC6E3z2hRdecB544AExdkJvMPW6gWL5fJ7Gb//99/fX7gWxODViO8irEe+LtGmmeCGzGCk3bNS+WrVqJdsZj4XHJGlDH5PC8JmAweRT7DyKrVu3yt82bdpEnlevXr3k/WC/lYiDBBWelSE6+sw0VkQRYegP0zgdddRR/hrFVvJqxPsibZopu3btkr/cvCY5FbWcdtppsh3Z2B07dogBB0PIpIEGMmEtCbqo8zGL0XGmMevTp48I0dF4kuTiL40bybAwGDGRC/tQLGdP1zj5xCW2zHqSM5lAkoZkTYcOHdwffvjBXxsPia369eu7Xvjpr9mL+a5wgikVmSa2zHZLlizx16TG69/K9rNmzfLX7MVcI87FkO77uTZcI01sJR/r+8Qklk4++WRJ8mQiRk5YzHRNhNOSPOeakPnggw+W8/J+J39tPEb6NdxH57MrVqzwX+0FD044vWjRokhdZkTX6Vsrycd6I0YhkSwxGWcmaTDhIchXX30lYaXJHpMkItkDnmcqNiZMWBo32aM0QYj9wgsvdMaNGyeTWMKGTKJu6tSp/qs94nLwxhtvFDFKGoHgdoZq1apJf/nll192PG9c5PsZn2ZsmWunJB/rjRijvPHGG+WGpP9HUofEGbOOmIiBISxfvrxIZplMM5MfmG1Ff5Ht2J7PIx5eGh4aGVUSTuGlX79+hf1h+ryVK1eWCRmc4+DBg+U4yTY3bty4yJAR0QUTUMg5dOzYsfD8mbTxu9/9zt9qL0QknTt3lkkefD860HwG6VZyFjQKjRo18rdWkoz1Rgxkj9Evvvfee53du3fLNEI8CV62R48ekvA54IAD/K33DNFg7HgovDLea9SoUfKXGU/MzMo3DPcwCyy8MGRkvCIhNUNFGBjDQaNHj3aee+45ycYTRWB8Bozu8ccfl4Zg9erVcv5k4flMlBEDQ2x8P7O0+AzXgG7GPffc43j9/Iyz90rZotKmimI55cITK0pFRo1YUSxHjVhRLEeNWFEsR41YUSxHjVhRLEeNWFEsR41YUSxHjVhRLEeNWFEsR41YUSxHjVhRLEeNWFEsR41YUSwn0UaM/GewwqNZKIo3fPjwyMoT5jNIuVB6JlN4rpbP8TyuSpgoNmGFJw7LmfLgPCVZeYA/LGVi4MH5V199NaO6W99++60zb948/5Wi2IUVRkyZmqCc6ZtvvumMGDFCPOawYcOkDG0YyuVSqYMi6emghhXbGQ1kRbEJK/vE1Ium5AwSJJSTCSobGKpUqSJ/URSMquZooAF47bXXJPwuKCjw1yqKPVib2KJAHhUb8cZhtT+gWHy9evWcxYsXR6ocGiiyTt/54osv1ppSipVYa8SAkgO1maOMj8J4FMFD6QBDjiolRn+ZfjNypnXq1PHXKopdWGvE1IcmDKYfS+3pKFADrFu3rjN9+nQx5jD0g+k3o6aIRrGi2Ih1Roz3XLdunQiKoVBAPeY4UTB0iagjTQab2tNB6CfTX6buMsqAimIrVhgxBmvGiOnr4jkZD+7du7fUTE7FeeedJ/WV8drBLDb9ZMJsirAfe+yx/lpFsY+8GjHyKcb4gku20qZmnBiPeeutt0rhdIaFWrZsWUy7N8xhhx0mSgYkr0hiAf3jWbNmOf/85z+dSy+9NO13KEqSyasR50ra1IwTo35w9913y6yqI444wn83PQxHMXxkJn/QP0Yln+z1SSed5G+lKHaSVyMmTD3//POLLYiFlSaMGSO6RhJr06ZNzpw5c2RsuVmzZpEq+YpiE9YltkoC2ktGjwiPvnTpUslaM8FDUWynQhgx0BcnU41UKKE0CS2y14piOxXGiEleMSuLySFIgOqwklJeqDBGDAxPoVdMtpqstaKUB1TaVFEsp0J5YkUpj6gRK4rlqBEriuWoESuK5agRK4rlqBEriuWoESuK5agRK4rlqBEriuWoESuK5agRK4rlqBEriuWoESuK5agRK4rlJPZRRErStmrVyn8VDzKn/fv3dw488EB/Tf5AMuaWW25x3n33XX/NHn76059KEfvatWtL4YFatWppBU2l1EisEVPQjuLucXzyySdSdrZbt25SxpY6WvnGGPHHH38sRQARdjMgt/r555/L/9S57tu3r1O1alV5rSj5xMqiAJSdxUjwiKNHj46Vcck1xoiPO+64SO+P6PmECROcZ555xjnmmGNECB2dJ0XJJ1b2id9++23xwki4lJYBZ0LlypWdrl27Og8//LDz2WefxWonK0ousc6If/zxR2fq1Kkia0q9rHSgufTII49IedoFCxb4a/dAEDJ+/Hh575VXXvHX7huE9VdffbXTokULKY27fv16/5294LGHDh0qxfWpwklN7GeffbaIwa9YscI544wznEcffTRSXxn1io4dO4qkDeJySsXFOiNeuXKls3DhQjESPF86SDC1bt3aOf7448Vgv/vuO/+dPf3qF198UZJjDRo08NfuO+yTYnyE/UY6xrBq1SrnhhtucCZOnCi1sFG3IDwfMmSI88ADDxQaMsZdo0YNMeZ//OMfsi4I/fLVq1c7DRs2dH75y1/6a5WKiFVGjFHMmDFDvDBeLFMw4Pbt24sBLVmyRNbh3V544QX5i0fLdXa7UqVKYlx4XeNJ+X/QoEHO4Ycf7rz88ssSIdx1113ShyYER2aGbgL84he/cC644AJRdHz//fdlXRDE4Hbt2iWCcaWR1FOSi1VGTCILCZZLLrkkIy8chJAV1QcSTxgT30X2u127dnnRY8KIWb799ltpfIAIYs2aNdJoBJUYMUI8N1ntZcuWSZcBaKgorfvmm28WCamJJpBq5Xw0caZYY8TcxBgw3q0khd9//vOfi/H8/e9/FykXvPDZZ58tqhD58GT//ve/ZWEYiu//17/+JYaH0aHwGOZnP/uZc+SRR0qIb4yYMJt+cTik5hxoDPDUqmKh5NWIcyVtCkZPuH79+iXWE8Z4mEAyePBgMag77rhDjDsfMBzF2DGNzgEHHCChL4aIQLpJaAUXjo1Q+ptvvhHvDRhoOKQmGcdEGL6XySWKklcjzpW0KRD+MmxDIqeks6HwikcddZT8f8ghh8hMq3yxYcMGZ8uWLc7pp58urzE+vDEzuxhrJqEVtVx77bUiNWPAUBlzNiG1CaXpC6s4uiIw2SPp7Ny50+3atat7zTXXuJ4389dmj+fNXM+Tu3379nWbNGnidu/eXb47UzzP6l599dVyLKk+53lSt3Xr1u6VV17pbt26VdaZc2Cd1yeXdZngeXC3R48ehd/l9Znd6tWru17/2t9CqehY0SdmHPS9995zzjzzzBJrKDF089RTT4lWMdM0b7rpJue1114rNna8r5DEQgydCSktW7YsHP4h+03YjC7y5s2bZV0moJ/MfGxCasac0Vhm6Im+sqKAFUaMAXPzc+OWJJT2GisZmpo3b56EsmS2TbZ6xIgRMua6r5DEwsg6d+4sjQX7YdJHMGlmhNwYE/7iiy/8tXvg82Svww9XAEJwJMToMxNKm6y1ooAVc6e56adPny6zmkryUAH9U7wv/UvGY82YMP3M22+/3fHCdOf+++9P20CkegACoyRxRYb57rvvlplU4e/jUk+bNs156KGHJNlFlp3vwXv/5S9/kYbKZM2D0BceOHCgM2XKFDHeMWPGOKeccor/rlLRSbwnZriF8BPviYFkiwmjMRRmbgUndaBTjAEz5GQmgWQCySWyzHhNFowao8LQ5s6dK8mpqAYBr4x3njx5snhTDHfUqFHSQJEAY/1ZZ53lb70XvouE3u7du2UsmckrimJQaVNFsRwr+sSKosSjRqwolqNGrCiWo0asKJajRqwolqNGrCiWo0asKJajRqwolqNGrCiWo0asKJajRqwolqNGrCiWo0asKJajRqwolmONEVMrety4cfKsLrIrlLrhmVyKy/EscLAucyqMPIrKnyjlhcQbMcY5adIk0V1Clwj5UBQgKPF6xBFHOIsWLXLatm3rtGnTRsrapoJHpyn3umPHDnmon1I3imI7iS4KgAFTlYPqF1SzQPaEyhfBsjg//PCDlMFF4hQP+8QTTxQWpwuD56VMD/Wc8ewFBQXO448/rgXYFatJtCemYiQhNMZJBUlqTwUNGCj+ThH43r17y/ZPP/10bGhNKI0Hvu6666QIPYJkKC4ois0k1oipiYXoGHWlkF9JpUOMYTdp0kTqUCFKhsxJGFOMjlpWderUkW1RWpg/f76E2YpiK4k1YkJf9IYwOIrDpQOPjDwpYTIeNsymTZukZjPenIJ7FLbje+lTU8VSUWwlsUZMAuvDDz8UxUIkVzKBbZFmiaojTZF4Kl9SiJ3qkZR+JbtNrei1a9f6WymKfSTWiBEjA7SLMgVNX5JaW7duLVQWBMJmJEOrV68uySwDnhtjJgQn3FYUG0msEaMiWFLoIweVFwiv33nnnUKjNRjpUIaacqECoShlQV6NeF+kTU0iC1WETKGo+5dffineGIUFIFONJKoJn4MwtNS4cWMJ3fHUimIjeR0nZvJFlIcziaVUkGFGMgUNIvSEM+kX02j06tVLxooRDwfUIzp06JC2MUANYvjw4UU8taLYQGIne5CEuueee5ylS5c6I0eOFD3eVDDpo3v37pKFRqvohBNOkPVoGzFJhL51nKA4/W/6zWg9hXWQFCXxYMRJ5fXXX3erVavmtmjRwt22bZu/tji7d+92R48e7RYUFLieF5bXsGPHDrdTp07uxRdf7H7yySeyLgq0ftlPv379Cj+rKLaQ2MQWMKuKkJqZWJ4xOqtWrRIJ0CCM8dLHHjZsmFOrVi3HM/hCMTOGj/Dk9IVTTRYhucWYMX3ndPOvFSVpJNqIMUakR3v06CEi282bN5cMM0qGLPR7zz//fJk7jQFjyGbetNdAid4vQ0c0BlEqhQaT9KLfHKUPrChJJtFGDCjl441R9SdBxWsjKcrTSBgf48N467Fjx0pfGshS44VJjPHUUzpoHJBPZT/mOxTFBhL9FFOmMD3zvvvucz744AMJi/v27VsiMXJFsZFyYcTAnGlEvmfMmCGemaeamjZtWuypJ0Upb5QbI1aUioq6KUWxHDViRbEcNWJFsRw1YkWxHDViRbEcNWJFsRw1YkWxGsf5f9j0fHR2y5VkAAAAAElFTkSuQmCC;imageBorder=default;" vertex="1" parent="1">
          <mxGeometry x="201.5" y="329" width="103.11" height="172" as="geometry" />
        </mxCell>
        <mxCell id="iFOoKA2MuVSQarTfzU_r-43" value="UI/UX&lt;div&gt;Designer&lt;/div&gt;" style="image;html=1;image=img/lib/clip_art/people/Worker_Black_128x128.png;fontColor=#FF0000;" vertex="1" parent="1">
          <mxGeometry x="480" y="441.5" width="50" height="46" as="geometry" />
        </mxCell>
        <mxCell id="iFOoKA2MuVSQarTfzU_r-50" value="Monitoring (2)" style="image;html=1;image=img/lib/clip_art/people/Worker_Black_128x128.png;fontColor=#FF0000;" vertex="1" parent="1">
          <mxGeometry x="705.1199999999999" y="458.5" width="61.44" height="47.5" as="geometry" />
        </mxCell>
        <mxCell id="iFOoKA2MuVSQarTfzU_r-51" value="Extermal Facing" style="whiteSpace=wrap;html=1;aspect=fixed;verticalAlign=top;align=right;fontStyle=1" vertex="1" parent="1">
          <mxGeometry x="40" y="329" width="151" height="151" as="geometry" />
        </mxCell>
        <mxCell id="iFOoKA2MuVSQarTfzU_r-52" value="Marketing&lt;div&gt;Manger&lt;/div&gt;" style="image;html=1;image=img/lib/clip_art/people/Suit_Man_Green_128x128.png;fontColor=#0000FF;" vertex="1" parent="1">
          <mxGeometry x="36" y="331" width="70" height="50" as="geometry" />
        </mxCell>
        <mxCell id="iFOoKA2MuVSQarTfzU_r-53" value="Community&lt;div&gt;Manger&lt;/div&gt;" style="image;html=1;image=img/lib/clip_art/people/Suit_Woman_128x128.png;fontColor=#0000FF;" vertex="1" parent="1">
          <mxGeometry x="130" y="342.5" width="52" height="65" as="geometry" />
        </mxCell>
        <mxCell id="iFOoKA2MuVSQarTfzU_r-54" value="Legal&lt;div&gt;Advisor&lt;/div&gt;" style="image;html=1;image=img/lib/clip_art/people/Suit_Man_Black_128x128.png;fontColor=#0000FF;" vertex="1" parent="1">
          <mxGeometry x="75.5" y="393" width="70" height="50" as="geometry" />
        </mxCell>
        <mxCell id="iFOoKA2MuVSQarTfzU_r-55" value="" style="verticalLabelPosition=bottom;verticalAlign=top;html=1;shape=mxgraph.basic.tick;fillColor=#00CC00;" vertex="1" parent="1">
          <mxGeometry x="53" y="440" width="27" height="30" as="geometry" />
        </mxCell>
        <mxCell id="iFOoKA2MuVSQarTfzU_r-56" value="&lt;b&gt;&lt;u&gt;Note&lt;/u&gt;&lt;/b&gt;:&amp;nbsp;&lt;div&gt;&lt;div style=&quot;&quot;&gt;&lt;span style=&quot;background-color: initial;&quot;&gt;1. Roles in &lt;/span&gt;&lt;font color=&quot;#ff0000&quot; style=&quot;background-color: initial;&quot;&gt;Red are new proposed roles.&lt;/font&gt;&lt;/div&gt;&lt;div&gt;External facing team is out of scope.&lt;/div&gt;&lt;div&gt;2. Head of product and CPO tasks overlap, Product Led and Product Owner tasks overlap&lt;/div&gt;&lt;/div&gt;" style="text;html=1;align=left;verticalAlign=middle;whiteSpace=wrap;rounded=0;" vertex="1" parent="1">
          <mxGeometry x="36" y="510" width="257" height="70" as="geometry" />
        </mxCell>
      </root>
    </mxGraphModel>
  </diagram>
</mxfile>
